<?xml version="1.0" encoding="UTF-8"?>
<svg version="1.1" xmlns="http://www.w3.org/2000/svg" width="512" height="512">
<path d="M0,0 L512,0 L512,512 L0,512 Z " fill="#000000" transform="translate(0,0)"/>
<path d="M0,0 L135,0 L147,2 L155,8 L160,13 L162,20 L162,33 L158,46 L153,53 L150,54 L148,58 L146,58 L145,62 L143,63 L139,71 L134,76 L130,80 L127,85 L127,98 L128,101 L129,122 L127,125 L122,130 L121,131 L111,133 L96,137 L84,139 L78,143 L74,149 L72,149 L69,158 L64,163 L57,171 L54,176 L49,181 L47,181 L46,185 L40,192 L38,192 L37,196 L37,204 L41,208 L52,211 L135,212 L144,214 L157,219 L159,224 L162,228 L162,238 L160,241 L158,241 L157,245 L149,249 L138,251 L-7,251 L-16,250 L-24,246 L-32,239 L-33,236 L-33,219 L-30,211 L-28,210 L-23,201 L-12,187 L-7,182 L-3,177 L0,172 L3,167 L4,163 L4,155 L2,146 L2,132 L4,128 L9,123 L15,118 L19,116 L31,115 L46,112 L52,107 L57,102 L63,93 L68,84 L73,78 L78,73 L81,68 L85,60 L86,53 L84,53 L84,51 L78,49 L59,48 L2,47 L-14,45 L-25,41 L-28,38 L-33,28 L-33,17 L-27,10 L-21,6 L-19,3 L-10,1 Z " fill="#3B0000" transform="translate(188,124)"/>
<path d="M0,0 L131,0 L152,3 L158,6 L158,8 L163,9 L170,15 L174,27 L174,36 L171,48 L167,55 L166,59 L164,59 L162,64 L157,70 L155,70 L155,72 L153,72 L153,74 L151,74 L149,80 L146,84 L143,84 L142,92 L141,93 L141,105 L143,114 L143,124 L142,130 L140,130 L139,136 L138,138 L136,138 L136,140 L133,141 L132,144 L124,148 L103,152 L94,153 L89,158 L81,168 L78,173 L76,173 L74,177 L72,181 L69,181 L67,186 L60,197 L60,205 L141,206 L156,209 L165,213 L165,215 L170,217 L175,222 L178,232 L178,242 L174,250 L172,250 L170,255 L163,259 L158,260 L157,263 L144,265 L-5,265 L-13,263 L-13,261 L-24,261 L-33,257 L-35,251 L-36,244 L-40,243 L-42,233 L-44,233 L-43,227 L-42,223 L-40,218 L-39,214 L-39,211 L-33,204 L-29,197 L-21,189 L-8,172 L-6,167 L-4,164 L-5,154 L-6,154 L-7,134 L-8,132 L-4,126 L0,119 L3,116 L7,115 L10,112 L17,111 L20,108 L26,107 L28,105 L39,105 L42,105 L49,100 L51,100 L53,95 L65,82 L69,76 L77,69 L80,68 L81,62 L80,61 L72,62 L62,64 L46,63 L46,65 L51,65 L51,66 L2,66 L-1,64 L-8,64 L-14,62 L-15,60 L-20,58 L-20,55 L-17,54 L-24,51 L-29,43 L-33,37 L-34,33 L-34,18 L-29,9 L-21,6 L-16,4 L-16,2 Z M6,5 L-7,7 L-14,9 L-19,14 L-25,19 L-27,22 L-27,33 L-21,44 L-15,48 L-3,51 L8,52 L65,53 L84,54 L90,56 L90,58 L92,58 L90,67 L85,77 L81,82 L76,87 L73,90 L67,101 L61,110 L53,116 L49,118 L37,120 L25,121 L16,127 L12,132 L9,134 L8,137 L8,151 L10,160 L10,168 L7,176 L4,179 L0,186 L-4,191 L-9,196 L-18,207 L-22,215 L-24,216 L-27,224 L-27,241 L-24,246 L-15,253 L-10,255 L-1,256 L144,256 L155,254 L163,250 L164,246 L166,246 L168,243 L168,233 L164,228 L163,224 L150,219 L141,217 L58,216 L47,213 L43,209 L43,201 L44,197 L47,196 L53,189 L53,186 L57,184 L65,174 L71,167 L76,162 L78,154 L80,154 L86,146 L90,144 L102,142 L117,138 L127,136 L132,132 L134,127 L135,127 L134,106 L133,103 L133,90 L137,83 L142,78 L146,74 L149,68 L152,65 L152,63 L154,63 L156,59 L160,57 L165,48 L168,38 L168,25 L166,18 L161,13 L156,10 L153,7 L141,5 Z M-2,128 Z M-3,129 Z M-4,130 Z M-5,131 Z M-6,132 Z M-39,217 Z M23,106 Z M22,107 Z M6,114 Z M5,115 Z M-9,134 Z M-10,135 Z M-11,136 Z M-8,136 Z M-41,213 Z M-40,214 Z M-45,233 Z " fill="#1F0000" transform="translate(182,119)"/>
<path d="M0,0 L53,0 L59,5 L60,7 L59,16 L47,30 L38,41 L26,55 L15,68 L6,79 L-5,92 L-6,94 L142,94 L148,98 L150,100 L150,110 L145,115 L144,116 L-34,116 L-39,112 L-41,108 L-41,102 L-33,91 L-24,81 L-15,70 L-3,56 L6,45 L19,30 L24,23 L2,22 L-4,18 L-6,14 L-6,6 L-1,1 Z " fill="#FDFCFC" transform="translate(199,250)"/>
<path d="M0,0 L174,0 L179,5 L180,6 L180,15 L168,30 L158,43 L147,57 L136,71 L125,85 L121,92 L142,92 L148,96 L150,98 L150,108 L145,113 L143,114 L92,114 L87,109 L86,100 L92,91 L105,75 L115,62 L128,46 L135,37 L142,28 L146,23 L1,22 L-4,19 L-7,14 L-7,7 L-2,1 Z " fill="#FCFBFB" transform="translate(165,137)"/>
<path d="M0,0 L120,0 L135,3 L144,4 L146,8 L151,8 L155,11 L158,12 L158,15 L163,15 L166,28 L168,28 L171,32 L174,37 L174,51 L171,56 L168,63 L166,68 L163,71 L160,77 L154,84 L148,91 L146,96 L140,104 L138,106 L138,113 L141,117 L142,127 L142,137 L138,142 L140,142 L140,147 L126,161 L117,162 L113,166 L102,166 L97,168 L92,169 L81,180 L72,191 L57,206 L56,213 L63,214 L63,212 L71,210 L137,210 L146,211 L153,215 L158,217 L158,219 L160,219 L161,221 L165,222 L168,229 L170,239 L174,238 L175,244 L176,253 L173,260 L171,265 L164,272 L157,275 L151,278 L146,280 L138,281 L129,282 L-5,282 L-20,279 L-23,278 L-23,276 L-28,276 L-28,272 L-19,273 L-14,274 L135,274 L148,273 L149,269 L158,266 L161,265 L163,260 L165,260 L167,255 L168,252 L168,242 L165,232 L165,230 L161,228 L156,225 L155,223 L142,219 L132,217 L67,216 L51,215 L50,207 L57,196 L60,191 L63,191 L64,187 L67,183 L69,183 L71,178 L79,168 L84,163 L85,162 L111,158 L121,154 L123,154 L124,150 L127,150 L127,148 L129,148 L131,140 L133,140 L133,124 L131,115 L131,103 L134,94 L138,92 L142,84 L144,84 L144,82 L146,82 L146,80 L151,75 L155,69 L157,69 L158,64 L162,56 L164,46 L164,37 L160,25 L156,22 L156,20 L149,18 L149,16 L144,15 L143,14 L122,11 L-9,11 L-25,12 L-25,14 L-34,19 L-38,19 L-39,23 L-42,28 L-42,43 L-39,51 L-34,57 L-33,61 L-28,62 L-28,63 L-37,62 L-42,57 L-44,50 L-46,53 L-47,44 L-49,44 L-50,34 L-50,31 L-47,27 L-49,27 L-47,22 L-40,14 L-34,9 L-29,7 L-25,5 L-18,4 L-9,2 Z M-46,24 Z M-47,25 Z M172,49 Z M171,50 Z M137,143 Z M136,144 Z M125,158 Z M124,159 Z M120,160 Z M111,164 Z M97,166 Z M174,251 Z M171,260 Z M146,278 Z M-18,3 Z M-33,8 Z M169,59 Z M168,62 Z M162,74 Z M161,75 Z M160,76 Z M140,144 Z M152,277 Z " fill="#150000" transform="translate(191,109)"/>
<path d="M0,0 L131,0 L152,3 L158,6 L165,14 L169,18 L172,28 L172,36 L170,46 L165,56 L163,56 L161,61 L157,63 L155,68 L151,69 L149,74 L145,81 L141,87 L139,93 L138,94 L138,103 L140,112 L140,126 L139,131 L132,136 L127,141 L117,145 L94,149 L90,150 L88,154 L83,159 L77,166 L75,166 L73,172 L68,178 L66,178 L65,182 L63,182 L63,184 L61,184 L60,188 L58,188 L57,193 L55,193 L53,200 L54,207 L65,210 L66,211 L149,212 L155,214 L164,219 L170,226 L170,229 L172,229 L172,238 L168,248 L157,255 L154,255 L154,257 L152,258 L135,259 L-2,259 L-14,256 L-24,249 L-29,243 L-30,241 L-30,223 L-27,216 L-20,205 L-12,196 L-8,192 L-6,187 L-1,183 L2,175 L5,169 L5,158 L3,153 L3,134 L7,126 L13,122 L16,119 L23,116 L29,114 L42,112 L51,110 L56,106 L62,101 L68,91 L74,83 L77,76 L83,69 L85,60 L74,58 L3,57 L-12,56 L-20,52 L-24,51 L-29,43 L-33,37 L-34,33 L-34,18 L-29,9 L-21,6 L-16,4 L-16,2 Z M6,5 L-7,7 L-14,9 L-19,14 L-25,19 L-27,22 L-27,33 L-21,44 L-15,48 L-3,51 L8,52 L65,53 L84,54 L90,56 L90,58 L92,58 L90,67 L85,77 L81,82 L76,87 L73,90 L67,101 L61,110 L53,116 L49,118 L37,120 L25,121 L16,127 L12,132 L9,134 L8,137 L8,151 L10,160 L10,168 L7,176 L4,179 L0,186 L-4,191 L-9,196 L-18,207 L-22,215 L-24,216 L-27,224 L-27,241 L-24,246 L-15,253 L-10,255 L-1,256 L144,256 L155,254 L163,250 L164,246 L166,246 L168,243 L168,233 L164,228 L163,224 L150,219 L141,217 L58,216 L47,213 L43,209 L43,201 L44,197 L47,196 L53,189 L53,186 L57,184 L65,174 L71,167 L76,162 L78,154 L80,154 L86,146 L90,144 L102,142 L117,138 L127,136 L132,132 L134,127 L135,127 L134,106 L133,103 L133,90 L137,83 L142,78 L146,74 L149,68 L152,65 L152,63 L154,63 L156,59 L160,57 L165,48 L168,38 L168,25 L166,18 L161,13 L156,10 L153,7 L141,5 Z " fill="#220000" transform="translate(182,119)"/>
<path d="M0,0 L135,0 L147,2 L155,8 L160,13 L162,20 L162,33 L158,46 L153,53 L150,54 L148,58 L146,58 L145,62 L143,63 L139,71 L134,76 L130,80 L127,85 L127,98 L128,101 L129,122 L127,121 L126,111 L121,107 L119,106 L98,105 L99,101 L109,88 L121,73 L131,60 L142,46 L153,32 L156,28 L156,19 L151,14 L-23,14 L-28,18 L-29,20 L-29,29 L-31,28 L-31,14 L-25,9 L-20,4 L-13,2 Z " fill="#3E0000" transform="translate(188,124)"/>
<path d="M0,0 L2,3 L4,3 L4,1 L6,1 L4,5 L-8,20 L-19,34 L-25,43 L-24,52 L-20,56 L31,56 L36,53 L38,51 L37,57 L32,61 L22,63 L7,67 L-5,69 L-11,73 L-15,79 L-17,79 L-20,88 L-25,93 L-32,101 L-35,106 L-40,111 L-42,111 L-43,115 L-49,122 L-51,122 L-52,126 L-52,134 L-48,138 L-37,141 L46,142 L55,144 L68,149 L68,152 L64,151 L-84,150 L-82,146 L-73,135 L-60,120 L-51,109 L-39,95 L-28,82 L-20,72 L-19,63 L-23,58 L-25,57 L-76,56 L-76,55 L-67,53 L-59,50 L-44,48 L-36,45 L-31,43 L-26,39 L-23,34 L-20,28 L-14,19 L-7,9 L-2,1 Z " fill="#4E0000" transform="translate(277,194)"/>
<path d="M0,0 L23,1 L94,2 L105,5 L104,14 L97,22 L93,31 L86,40 L82,47 L76,52 L71,56 L59,59 L49,60 L39,64 L34,67 L29,71 L25,75 L23,75 L22,79 L22,96 L23,100 L23,116 L16,124 L14,124 L13,128 L6,133 L3,140 L-1,143 L-5,150 L-8,153 L-10,153 L-11,159 L-14,164 L-15,168 L-15,185 L-13,192 L-13,194 L-10,195 L-9,200 L-4,202 L-3,204 L1,206 L-6,205 L-13,202 L-15,196 L-16,189 L-20,188 L-22,178 L-24,178 L-23,172 L-22,168 L-20,163 L-19,159 L-19,156 L-13,149 L-9,142 L-1,134 L12,117 L14,112 L16,109 L15,99 L14,99 L13,79 L12,77 L16,71 L20,64 L23,61 L27,60 L30,57 L37,56 L40,53 L46,52 L48,50 L59,50 L62,50 L69,45 L71,45 L73,40 L85,27 L89,21 L97,14 L100,13 L101,7 L100,6 L92,7 L82,9 L66,8 L66,10 L71,10 L71,11 L22,11 L19,9 L12,9 L6,7 L5,5 L0,3 Z M18,73 Z M17,74 Z M16,75 Z M15,76 Z M14,77 Z M-19,162 Z M43,51 Z M42,52 Z M26,59 Z M25,60 Z M11,79 Z M10,80 Z M9,81 Z M12,81 Z M-21,158 Z M-20,159 Z M-25,178 Z " fill="#130000" transform="translate(162,174)"/>
<path d="M0,0 L5,4 L7,5 L153,6 L147,14 L140,23 L129,37 L125,42 L122,42 L122,44 L119,45 L118,42 L116,43 L112,50 L108,55 L105,60 L98,70 L96,75 L92,81 L86,86 L77,89 L67,91 L59,92 L49,96 L41,97 L41,95 L46,92 L51,90 L65,87 L77,85 L85,80 L87,80 L89,76 L92,73 L96,68 L99,61 L105,55 L108,49 L112,45 L116,35 L119,31 L120,20 L111,17 L106,16 L24,15 L15,13 L14,10 L9,9 L5,7 L2,7 Z " fill="#520000" transform="translate(159,153)"/>
<path d="M0,0 L1,3 L-7,13 L-10,18 L-12,18 L-14,23 L-18,30 L-22,36 L-24,42 L-25,43 L-25,52 L-23,61 L-23,75 L-24,80 L-31,85 L-36,90 L-46,94 L-69,98 L-73,99 L-75,103 L-80,108 L-86,115 L-88,115 L-90,121 L-95,127 L-97,127 L-98,131 L-100,131 L-100,133 L-102,133 L-103,137 L-105,137 L-106,142 L-108,142 L-110,149 L-109,156 L-98,159 L-97,160 L-14,161 L-8,163 L1,168 L7,175 L7,178 L9,178 L9,187 L5,197 L0,199 L1,195 L3,195 L4,192 L4,182 L0,177 L0,173 L-6,172 L-15,168 L-22,167 L-105,166 L-116,163 L-121,158 L-121,150 L-119,146 L-114,141 L-111,138 L-110,135 L-105,130 L-103,130 L-101,125 L-92,115 L-90,115 L-87,106 L-85,103 L-83,103 L-81,98 L-77,94 L-73,92 L-61,90 L-46,86 L-36,84 L-31,79 L-29,75 L-30,55 L-31,52 L-31,39 L-26,31 L-21,26 L-18,25 L-16,20 L-14,16 L-12,16 L-11,12 L-9,12 L-7,7 L-4,6 Z " fill="#310000" transform="translate(345,170)"/>
<path d="M0,0 L120,0 L135,3 L144,4 L146,8 L151,8 L155,11 L158,12 L158,15 L163,15 L165,22 L165,28 L164,28 L162,21 L155,16 L155,14 L147,14 L143,11 L133,9 L-6,9 L-21,10 L-29,13 L-31,16 L-39,18 L-44,23 L-49,27 L-47,22 L-40,14 L-34,9 L-29,7 L-25,5 L-18,4 L-9,2 Z M-18,3 Z M-33,8 Z " fill="#110000" transform="translate(191,109)"/>
<path d="M0,0 L132,0 L144,5 L149,6 L149,7 L-21,7 L-19,5 L-11,1 Z " fill="#530000" transform="translate(188,130)"/>
<path d="M0,0 L0,3 L-5,9 L-11,13 L-16,16 L-28,18 L-40,19 L-49,25 L-53,30 L-55,31 L-56,34 L-56,48 L-54,57 L-54,65 L-57,73 L-60,76 L-64,83 L-69,89 L-71,89 L-73,93 L-82,104 L-87,113 L-89,113 L-90,118 L-91,121 L-91,138 L-88,143 L-80,149 L-75,151 L-66,152 L79,152 L90,150 L95,147 L98,148 L92,152 L89,152 L89,154 L87,155 L70,156 L-67,156 L-79,153 L-89,146 L-94,140 L-95,138 L-95,120 L-92,113 L-85,102 L-77,93 L-73,89 L-71,84 L-66,80 L-64,76 L-62,75 L-58,67 L-57,54 L-59,54 L-61,45 L-61,34 L-60,30 L-58,30 L-56,25 L-53,22 L-48,19 L-41,17 L-17,13 L-11,10 L-7,8 L-7,6 L-4,5 L-2,1 Z " fill="#350000" transform="translate(247,222)"/>
<path d="M0,0 L134,0 L149,1 L159,6 L164,11 L168,15 L171,25 L171,33 L169,43 L164,53 L162,53 L160,58 L156,60 L154,65 L152,66 L154,61 L162,51 L164,40 L166,35 L166,22 L164,15 L160,11 L154,7 L154,5 L140,3 L5,3 L-8,5 L-14,6 L-18,11 L-24,15 L-27,19 L-27,30 L-21,41 L-16,44 L-4,47 L7,48 L64,49 L83,50 L89,53 L89,55 L91,55 L91,62 L87,70 L83,77 L79,80 L81,74 L86,64 L87,55 L78,52 L-6,51 L-16,47 L-23,45 L-28,39 L-32,32 L-32,20 L-31,16 L-28,14 L-25,9 L-13,3 L-3,1 Z " fill="#2B0000" transform="translate(183,122)"/>
<path d="M0,0 L4,5 L8,7 L31,8 L28,13 L17,26 L6,39 L-3,50 L-15,64 L-26,77 L-34,88 L-34,94 L-33,98 L-36,98 L-37,92 L-36,80 L-33,78 L-29,70 L-25,66 L-23,61 L-16,53 L-9,45 L0,35 L3,24 L3,14 L0,6 Z " fill="#500000" transform="translate(193,264)"/>
<path d="M0,0 L2,3 L4,3 L4,1 L6,1 L4,5 L-8,20 L-19,34 L-25,43 L-24,52 L-20,56 L29,57 L29,58 L15,59 L6,62 L-7,65 L-13,68 L-20,77 L-25,84 L-28,82 L-20,72 L-19,63 L-23,58 L-25,57 L-76,56 L-76,55 L-67,53 L-59,50 L-44,48 L-36,45 L-31,43 L-26,39 L-23,34 L-20,28 L-14,19 L-7,9 L-2,1 Z " fill="#590000" transform="translate(277,194)"/>
<path d="M0,0 L3,1 L4,5 L4,18 L1,25 L-1,25 L-2,29 L-4,29 L-5,34 L-13,44 L-15,43 L-19,48 L-23,52 L-25,52 L-27,57 L-31,66 L-33,70 L-33,81 L-32,89 L-30,88 L-29,84 L-27,92 L-26,106 L-28,105 L-29,95 L-34,91 L-36,90 L-57,89 L-56,85 L-46,72 L-34,57 L-24,44 L-13,30 L-2,16 L1,12 L1,3 Z " fill="#5C0000" transform="translate(343,140)"/>
<path d="M0,0 L1,2 L-1,5 L-3,5 L-4,8 L-6,8 L-8,14 L-13,19 L-22,30 L-27,38 L-29,44 L-29,62 L-27,66 L-19,73 L-12,77 L-2,79 L135,79 L154,78 L154,76 L165,70 L169,68 L168,72 L167,74 L164,74 L162,78 L149,82 L135,83 L0,83 L-12,81 L-24,76 L-30,70 L-33,63 L-33,46 L-28,35 L-21,22 L-16,17 L-11,13 L-4,3 Z " fill="#280000" transform="translate(182,298)"/>
<path d="M0,0 L143,0 L143,2 L150,4 L151,7 L157,7 L162,12 L163,15 L163,31 L159,41 L156,46 L155,49 L152,52 L151,54 L149,54 L148,58 L146,59 L142,67 L137,72 L133,76 L130,81 L130,94 L131,97 L131,104 L130,104 L129,100 L128,102 L125,102 L124,93 L124,82 L129,71 L133,64 L135,64 L137,60 L142,55 L146,54 L153,44 L154,41 L156,40 L157,37 L159,36 L161,30 L161,17 L160,13 L152,9 L143,6 L135,3 L3,3 L-8,4 L-23,12 L-25,13 L-25,9 L-13,4 L-9,2 Z " fill="#440000" transform="translate(185,128)"/>
<path d="M0,0 L1,3 L0,5 L-2,5 L-3,9 L-8,13 L-11,18 L-12,19 L-12,22 L-17,28 L-25,34 L-28,40 L-30,55 L-28,58 L-25,59 L-25,61 L-15,64 L-1,65 L88,65 L85,62 L91,64 L97,66 L97,69 L93,68 L-55,67 L-53,63 L-44,52 L-31,37 L-22,26 L-10,12 Z " fill="#680000" transform="translate(248,277)"/>
<path d="M0,0 L6,0 L4,1 L4,3 L-5,5 L-6,6 L-24,9 L-28,11 L-31,11 L-32,14 L-34,14 L-36,18 L-41,24 L-45,31 L-48,32 L-49,36 L-56,45 L-57,47 L-59,47 L-61,51 L-66,56 L-68,56 L-69,61 L-70,63 L-70,72 L-65,76 L-61,77 L15,78 L34,80 L43,84 L48,89 L50,91 L50,96 L46,94 L44,92 L44,88 L38,87 L29,83 L22,82 L-61,81 L-72,78 L-77,73 L-77,65 L-75,61 L-70,56 L-67,53 L-66,50 L-61,45 L-59,45 L-57,40 L-48,30 L-46,30 L-43,21 L-41,18 L-39,18 L-37,13 L-33,9 L-29,7 L-17,5 L-2,1 Z " fill="#400000" transform="translate(301,255)"/>
<path d="M0,0 L132,0 L126,8 L119,17 L108,31 L103,36 L102,33 L105,24 L107,24 L107,14 L104,9 L98,5 L95,4 L79,3 L4,2 Z " fill="#660000" transform="translate(180,159)"/>
<path d="M0,0 L1,2 L-2,7 L-8,14 L-10,19 L-15,26 L-23,33 L-33,37 L-47,39 L-59,42 L-62,45 L-65,45 L-67,49 L-71,53 L-71,67 L-68,75 L-68,85 L-71,96 L-78,103 L-85,111 L-93,121 L-95,123 L-97,128 L-101,132 L-105,142 L-107,141 L-108,159 L-105,159 L-104,162 L-99,167 L-104,165 L-109,160 L-110,157 L-110,140 L-107,132 L-105,131 L-100,122 L-89,108 L-84,103 L-80,98 L-77,93 L-74,88 L-73,84 L-73,76 L-75,67 L-75,53 L-73,49 L-68,44 L-62,39 L-58,37 L-46,36 L-43,35 L-30,34 L-22,29 L-15,21 L-10,12 L-7,9 L-4,4 Z " fill="#3C0000" transform="translate(265,203)"/>
<path d="M0,0 L5,4 L17,9 L19,10 L19,12 L109,13 L115,15 L115,17 L121,18 L123,22 L123,30 L124,32 L122,39 L116,43 L112,50 L108,55 L105,60 L98,70 L96,75 L92,81 L86,86 L77,89 L67,91 L59,92 L49,96 L41,97 L41,95 L46,92 L51,90 L65,87 L77,85 L85,80 L87,80 L89,76 L92,73 L96,68 L99,61 L105,55 L108,49 L112,45 L116,35 L119,31 L120,20 L111,17 L106,16 L24,15 L15,13 L14,10 L9,9 L5,7 L2,7 Z " fill="#4E0000" transform="translate(159,153)"/>
<path d="M0,0 L6,0 L2,2 L-8,4 L-13,4 L-13,6 L-15,6 L-15,8 L-20,13 L-22,13 L-24,18 L-30,26 L-34,31 L-39,36 L-42,37 L-42,39 L-44,39 L-45,46 L-48,49 L-48,59 L-42,60 L-42,62 L42,63 L50,66 L57,68 L64,73 L69,84 L69,97 L67,97 L67,99 L65,99 L65,101 L63,101 L65,92 L66,83 L64,83 L61,78 L57,73 L48,68 L43,67 L-40,66 L-48,63 L-53,61 L-54,54 L-51,47 L-49,47 L-48,42 L-46,42 L-45,38 L-43,38 L-43,36 L-41,35 L-40,32 L-35,27 L-31,20 L-29,20 L-27,16 L-20,8 L-14,3 L-7,1 Z " fill="#270000" transform="translate(288,265)"/>
<path d="M0,0 L171,0 L171,1 L155,3 L146,4 L14,4 L0,1 Z " fill="#630202" transform="translate(168,366)"/>
<path d="M0,0 L8,0 L30,3 L94,4 L95,6 L83,9 L66,8 L66,10 L71,10 L71,11 L22,11 L19,9 L12,9 L6,7 L5,5 L0,3 Z " fill="#140000" transform="translate(162,174)"/>
<path d="M0,0 L2,2 L-1,9 L-8,16 L-15,19 L-21,22 L-26,24 L-34,25 L-43,26 L-177,26 L-190,23 L-190,21 L-183,22 L-35,22 L-25,20 L-20,18 L-11,13 L-3,5 Z M-1,4 Z M-26,22 Z M-20,21 Z " fill="#0D0000" transform="translate(363,365)"/>
<path d="M0,0 L120,0 L135,3 L141,4 L142,6 L127,4 L-7,4 L-17,7 L-23,8 L-32,13 L-34,16 L-39,18 L-44,23 L-49,27 L-47,22 L-40,14 L-34,9 L-29,7 L-25,5 L-18,4 L-9,2 Z M-18,3 Z M-33,8 Z " fill="#0B0000" transform="translate(191,109)"/>
<path d="M0,0 L2,1 L1,3 L-1,3 L-1,5 L-3,5 L-5,10 L-7,10 L-9,19 L-9,26 L-7,29 L3,32 L10,33 L95,34 L101,36 L101,38 L18,38 L4,37 L-2,35 L-6,33 L-6,31 L-10,30 L-12,25 L-10,12 L-5,4 Z " fill="#600000" transform="translate(229,305)"/>
<path d="M0,0 L27,0 L33,2 L42,3 L42,4 L-128,4 L-128,3 L-103,1 Z " fill="#7B1F1F" transform="translate(295,133)"/>
<path d="M0,0 L2,2 L2,16 L-1,21 L-4,28 L-6,33 L-9,36 L-12,42 L-18,49 L-24,56 L-26,61 L-32,69 L-34,71 L-34,78 L-31,82 L-30,92 L-30,102 L-34,105 L-35,89 L-37,80 L-37,66 L-36,62 L-34,62 L-34,59 L-30,55 L-29,53 L-27,53 L-26,50 L-24,50 L-22,43 L-20,43 L-20,41 L-18,41 L-16,35 L-12,34 L-11,31 L-9,31 L-8,27 L-5,22 L-2,9 L0,9 Z M0,14 Z M-1,15 Z M-3,24 Z M-4,27 Z M-10,39 Z M-11,40 Z M-12,41 Z " fill="#0F0000" transform="translate(363,144)"/>
<path d="M0,0 L1,3 L-2,9 L-4,9 L-5,18 L-6,20 L-6,41 L-29,40 L-28,36 L-18,23 L-6,8 Z " fill="#6C0000" transform="translate(315,189)"/>
<path d="M0,0 L0,3 L-5,9 L-11,13 L-16,16 L-28,18 L-40,19 L-49,25 L-53,30 L-55,31 L-56,34 L-56,48 L-54,57 L-54,65 L-57,73 L-60,76 L-64,83 L-69,89 L-71,89 L-73,93 L-79,98 L-84,105 L-86,105 L-84,101 L-77,93 L-73,89 L-71,84 L-66,80 L-64,76 L-62,75 L-58,67 L-57,54 L-59,54 L-61,45 L-61,34 L-60,30 L-58,30 L-56,25 L-53,22 L-48,19 L-41,17 L-17,13 L-11,10 L-7,8 L-7,6 L-4,5 L-2,1 Z " fill="#2F0000" transform="translate(247,222)"/>
<path d="M0,0 L8,4 L22,7 L154,7 L167,5 L176,5 L175,7 L163,9 L162,10 L15,10 L1,4 Z " fill="#540000" transform="translate(160,362)"/>
<path d="M0,0 L5,4 L54,5 L54,6 L40,7 L31,10 L18,13 L12,16 L5,25 L0,32 L-3,30 L5,20 L6,11 L2,6 L0,5 L-51,4 L-51,3 L-1,2 Z " fill="#710202" transform="translate(252,246)"/>
<path d="M0,0 L66,0 L75,1 L82,5 L87,7 L87,9 L74,6 L64,5 L-1,4 L-6,2 L-6,1 Z " fill="#0F0000" transform="translate(262,319)"/>
<path d="M0,0 L5,4 L17,9 L19,10 L19,12 L109,13 L115,15 L115,17 L121,18 L123,22 L122,31 L117,40 L113,43 L115,38 L119,31 L120,20 L111,17 L106,16 L24,15 L15,13 L14,10 L9,9 L5,7 L2,7 Z " fill="#430000" transform="translate(159,153)"/>
<path d="M0,0 L135,0 L135,1 L110,2 L7,3 L-12,5 L-21,9 L-23,8 L-19,3 L-10,1 Z " fill="#350000" transform="translate(188,124)"/>
<path d="M0,0 L1,3 L1,12 L6,18 L10,20 L10,22 L14,23 L14,24 L-2,25 L-21,25 L-19,21 L-10,10 L-6,7 L-5,13 L-3,14 L-2,17 L-1,2 Z " fill="#700000" transform="translate(214,319)"/>
<path d="M0,0 L140,0 L146,3 L142,4 L136,2 L109,2 L6,3 L-10,4 L-8,2 Z " fill="#5D0000" transform="translate(186,132)"/>
<path d="M0,0 L7,1 L82,2 L98,3 L104,6 L109,11 L111,14 L111,21 L110,24 L108,24 L106,36 L104,36 L104,38 L101,39 L102,34 L104,32 L106,24 L107,21 L107,14 L104,9 L99,7 L99,5 L10,4 L1,2 Z " fill="#5C0000" transform="translate(177,159)"/>
<path d="M0,0 L12,0 L9,2 L-4,6 L-17,8 L-24,9 L-26,13 L-30,18 L-37,27 L-39,27 L-40,32 L-46,37 L-52,45 L-54,45 L-56,49 L-61,53 L-59,49 L-56,45 L-57,43 L-54,40 L-49,34 L-47,33 L-46,30 L-44,30 L-43,25 L-39,23 L-27,8 L-20,5 L-4,2 Z " fill="#5A0000" transform="translate(292,252)"/>
<path d="M0,0 L5,1 L5,3 L15,5 L15,7 L86,7 L82,9 L66,8 L66,10 L71,10 L71,11 L22,11 L19,9 L12,9 L6,7 L5,5 L0,3 Z " fill="#0C0000" transform="translate(162,174)"/>
<path d="M0,0 L20,0 L17,5 L6,18 L-4,30 L-5,27 L-3,27 L-3,21 L1,19 Z " fill="#710000" transform="translate(204,272)"/>
<path d="M0,0 L2,1 L1,5 L-1,5 L-2,10 L-10,20 L-22,34 L-33,47 L-37,51 L-36,47 L-34,42 L-31,39 L-29,34 L-21,25 L-14,17 L-10,12 L-7,7 L-2,2 Z " fill="#5F0000" transform="translate(200,294)"/>
<path d="M0,0 L28,0 L22,8 L15,17 L11,21 L10,11 L5,4 L0,1 Z " fill="#8D0101" transform="translate(284,159)"/>
<path d="M0,0 L1,0 L1,10 L-1,13 L-3,13 L-4,17 L-12,21 L-164,21 L-164,20 L-27,19 L-26,18 L-14,16 L-5,12 L-1,8 Z " fill="#4A0000" transform="translate(349,352)"/>
<path d="M0,0 L2,3 L4,3 L4,1 L6,1 L4,5 L-8,20 L-19,34 L-24,41 L-25,41 L-25,36 L-22,33 L-20,28 L-14,19 L-7,9 L-2,1 Z " fill="#580000" transform="translate(277,194)"/>
<path d="M0,0 L2,0 L2,20 L4,21 L-14,21 L-13,17 L-3,4 Z " fill="#750000" transform="translate(300,208)"/>
<path d="M0,0 L76,0 L95,2 L104,6 L109,11 L111,13 L111,18 L107,16 L105,14 L105,10 L99,9 L90,5 L90,3 L75,2 L0,1 Z " fill="#3C0000" transform="translate(240,333)"/>
<path d="M0,0 L14,7 L20,8 L162,9 L162,10 L15,10 L1,4 Z " fill="#4F0000" transform="translate(160,362)"/>
<path d="M0,0 L1,0 L2,18 L5,26 L5,36 L3,43 L-1,43 L-3,48 L-12,58 L-12,55 L-7,49 L-4,44 L-1,39 L0,35 L0,27 L-2,18 L-2,4 Z " fill="#380000" transform="translate(192,252)"/>
<path d="M0,0 L1,4 L-4,9 L-5,10 L-15,12 L-30,16 L-42,18 L-48,22 L-52,28 L-54,28 L-56,34 L-62,39 L-61,34 L-59,34 L-57,30 L-55,27 L-53,27 L-51,22 L-46,16 L-35,13 L-22,11 L-6,5 L-1,2 Z " fill="#4B0000" transform="translate(314,245)"/>
<path d="M0,0 L1,2 L-5,12 L-7,12 L-7,28 L-5,34 L-5,38 L-3,38 L-3,48 L-7,55 L-11,58 L-13,58 L-13,60 L-19,62 L-19,60 L-11,55 L-9,49 L-8,45 L-9,29 L-10,26 L-10,13 L-5,5 Z " fill="#350000" transform="translate(324,196)"/>
<path d="M0,0 L1,3 L-8,13 L-18,17 L-33,19 L-43,23 L-51,24 L-51,22 L-46,19 L-41,17 L-27,14 L-15,12 L-7,7 L-5,7 L-3,3 Z " fill="#4C0000" transform="translate(251,226)"/>
<path d="M0,0 L9,4 L10,7 L10,23 L2,29 L2,8 Z " fill="#580000" transform="translate(195,268)"/>
<path d="M0,0 L20,0 L27,5 L31,11 L31,22 L25,30 L24,26 L25,25 L26,14 L25,10 L16,4 L9,2 L0,1 Z " fill="#6E0000" transform="translate(264,159)"/>
<path d="M0,0 L91,1 L101,4 L106,7 L107,9 L107,16 L106,19 L103,20 L103,11 L102,7 L96,6 L96,4 L90,3 L4,2 Z " fill="#4C0000" transform="translate(178,164)"/>
<path d="M0,0 L1,2 L-3,8 L-5,13 L-7,13 L-9,18 L-11,19 L-14,26 L-15,31 L-15,39 L-14,48 L-18,48 L-19,39 L-19,28 L-14,17 L-10,10 L-8,10 L-6,6 L-1,1 Z " fill="#480000" transform="translate(328,182)"/>
<path d="M0,0 L1,2 L-1,8 L-5,18 L-8,20 L-8,17 L-17,28 L-22,32 L-24,32 L-24,34 L-26,33 L-13,16 Z " fill="#640000" transform="translate(342,155)"/>
<path d="M0,0 L6,2 L12,4 L12,7 L8,6 L-121,5 L-121,4 L3,3 Z " fill="#7A1212" transform="translate(333,339)"/>
<path d="M0,0 L11,1 L19,7 L24,12 L26,19 L26,32 L22,45 L17,52 L16,49 L21,40 L23,34 L23,18 L20,13 L15,7 L10,4 L0,1 Z " fill="#380000" transform="translate(324,125)"/>
<path d="M0,0 L5,4 L54,5 L54,6 L7,6 L8,9 L6,11 L2,6 L0,5 L-51,4 L-51,3 L-1,2 Z " fill="#974444" transform="translate(252,246)"/>
<path d="M0,0 L14,0 L11,5 L1,17 L0,17 Z " fill="#9D0404" transform="translate(210,272)"/>
<path d="M0,0 L1,2 L-1,6 L2,13 L2,16 L6,17 L-13,17 L-11,13 L-2,2 Z " fill="#A10B0B" transform="translate(206,327)"/>
<path d="M0,0 L1,0 L1,10 L-1,13 L-3,13 L-4,17 L-12,21 L-43,21 L-43,20 L-27,19 L-26,18 L-14,16 L-5,12 L-1,8 Z " fill="#470000" transform="translate(349,352)"/>
<path d="M0,0 L1,3 L-2,8 L-5,13 L-9,14 L-11,19 L-14,19 L-14,21 L-21,26 L-35,29 L-42,29 L-38,27 L-24,24 L-16,18 L-13,16 L-10,11 L-5,7 Z " fill="#2B0000" transform="translate(254,209)"/>
<path d="M0,0 L9,0 L5,3 L-11,6 L-19,10 L-26,19 L-31,26 L-34,24 L-27,15 L-24,15 L-22,11 L-19,7 L-17,7 L-17,5 L-12,3 Z " fill="#650000" transform="translate(283,252)"/>
<path d="M0,0 L3,1 L4,5 L4,18 L1,25 L-1,25 L-2,29 L-4,29 L-5,34 L-13,44 L-14,41 L-12,41 L-10,37 L-6,31 L-2,22 L0,13 L1,12 L1,3 Z " fill="#4D0000" transform="translate(343,140)"/>
<path d="M0,0 L6,0 L5,2 L-2,4 L-23,8 L-29,12 L-31,12 L-33,16 L-40,27 L-42,27 L-43,30 L-45,30 L-46,32 L-46,29 L-41,24 L-37,17 L-32,11 L-29,8 L-22,5 L-4,2 Z " fill="#360000" transform="translate(299,258)"/>
<path d="M0,0 L1,2 L-2,7 L-8,14 L-10,19 L-15,26 L-23,33 L-33,37 L-39,37 L-36,35 L-29,33 L-23,30 L-18,25 L-12,16 L-9,11 L-3,3 Z " fill="#440000" transform="translate(265,203)"/>
<path d="M0,0 L16,0 L10,8 L5,15 L4,11 L3,6 Z " fill="#9A0404" transform="translate(296,159)"/>
<path d="M0,0 L2,0 L0,5 L-14,20 L-21,29 L-23,31 L-25,36 L-29,40 L-33,50 L-34,46 L-30,36 L-20,25 L-13,16 L-2,4 Z " fill="#480000" transform="translate(193,295)"/>
<path d="M0,0 L2,4 L2,9 L1,10 L-26,10 L-26,9 L-13,7 L-7,5 Z " fill="#740000" transform="translate(250,239)"/>
<path d="M0,0 L2,1 L-8,14 L-17,26 L-18,26 L-18,21 L-15,18 L-13,13 L-4,3 Z " fill="#660101" transform="translate(270,209)"/>
<path d="M0,0 L1,2 L0,7 L1,16 L-10,16 L-9,12 Z " fill="#970A0A" transform="translate(296,213)"/>
<path d="M0,0 L3,1 L-6,11 L-15,22 L-20,27 L-19,23 L-17,18 L-6,6 L-1,1 Z " fill="#6C0303" transform="translate(183,318)"/>
<path d="M0,0 L1,2 L-3,12 L-5,10 L-6,26 L-8,25 L-8,22 L-11,21 L-11,13 L-2,3 Z " fill="#780000" transform="translate(219,311)"/>
<path d="M0,0 L1,0 L2,6 L4,7 L8,14 L11,17 L1,17 L-3,7 L-1,3 Z " fill="#890000" transform="translate(207,326)"/>
<path d="M0,0 L2,1 L1,3 L-1,3 L-1,5 L-3,5 L-5,10 L-7,10 L-9,19 L-9,26 L-4,31 L4,34 L4,35 L-2,35 L-6,33 L-6,31 L-10,30 L-12,25 L-10,12 L-5,4 Z " fill="#5F0000" transform="translate(229,305)"/>
<path d="M0,0 L6,1 L11,5 L18,14 L19,17 L19,29 L18,31 L16,31 L16,33 L14,33 L16,24 L17,15 L15,15 L12,10 L8,5 L0,1 Z " fill="#2A0000" transform="translate(337,333)"/>
<path d="M0,0 L1,2 L-1,6 L-1,17 L0,25 L2,24 L3,20 L5,28 L6,42 L4,41 L3,31 L-2,27 L-3,25 L-3,5 Z " fill="#520B0B" transform="translate(311,204)"/>
<path d="M0,0 L1,3 L-2,9 L-4,9 L-5,18 L-10,19 L-11,21 L-11,19 L-14,18 L-3,4 Z " fill="#5E0000" transform="translate(315,189)"/>
<path d="M0,0 L1,2 L-1,8 L-2,9 L-2,18 L0,27 L0,41 L-1,46 L-4,47 L-3,43 L-2,40 L-2,30 L-4,19 L-5,17 L-5,10 Z " fill="#280000" transform="translate(322,204)"/>
<path d="M0,0 L0,3 L-3,6 L-7,13 L-10,19 L-14,25 L-20,30 L-22,29 L-14,20 L-12,14 L-7,7 L-5,7 L-3,3 Z " fill="#570000" transform="translate(265,209)"/>
<path d="M0,0 L6,2 L7,5 L7,21 L3,23 L4,8 L2,8 Z " fill="#660000" transform="translate(198,270)"/>
<path d="M0,0 L5,0 L12,5 L16,11 L16,22 L10,30 L9,26 L14,21 L14,12 L9,7 L5,4 L5,2 L0,1 Z " fill="#760000" transform="translate(279,159)"/>
<path d="M0,0 L1,0 L3,15 L5,19 L5,29 L3,36 L1,36 L1,17 L0,12 Z " fill="#400000" transform="translate(192,259)"/>
<path d="M0,0 L2,0 L0,5 L-8,11 L-17,13 L-30,14 L-27,12 L-13,9 L-8,7 Z " fill="#6A0000" transform="translate(250,235)"/>
<path d="M0,0 L1,3 L0,5 L-2,5 L-3,9 L-8,13 L-11,18 L-13,18 L-14,22 L-19,23 L-13,15 L-4,5 Z " fill="#771010" transform="translate(248,277)"/>
<path d="M0,0 L1,4 L-4,9 L-5,10 L-15,12 L-22,12 L-18,10 L-2,3 Z " fill="#4C0000" transform="translate(314,245)"/>
<path d="M0,0 L1,0 L1,8 L-3,14 L-3,20 L-2,24 L-5,24 L-6,18 L-5,6 L-2,4 Z " fill="#560202" transform="translate(162,338)"/>
<path d="M0,0 L4,1 L-6,5 L-23,8 L-26,7 L-23,5 L-7,3 L-7,1 Z " fill="#1D0000" transform="translate(308,263)"/>
<path d="M0,0 L3,2 L3,18 L1,18 L1,25 L-2,30 L-3,27 L0,17 Z " fill="#300000" transform="translate(349,140)"/>
<path d="M0,0 L6,1 L13,4 L18,9 L20,11 L20,16 L16,14 L14,12 L14,8 L12,8 L11,4 L2,2 Z " fill="#390000" transform="translate(331,335)"/>
<path d="M0,0 L2,1 L-5,10 L-8,13 L-10,18 L-13,21 L-15,26 L-16,26 L-16,19 L-4,6 Z " fill="#560000" transform="translate(179,316)"/>
<path d="M0,0 L0,3 L-5,9 L-13,15 L-16,14 L-7,4 L-1,1 Z " fill="#600000" transform="translate(236,296)"/>
<path d="M0,0 L1,0 L1,10 L-1,13 L-3,13 L-4,17 L-12,21 L-17,21 L-13,18 L-9,16 L-5,12 L-1,8 Z " fill="#480F0F" transform="translate(349,352)"/>
<path d="M0,0 L1,2 L-1,8 L-5,18 L-8,20 L-7,14 L-5,14 L-4,9 L-6,9 L-6,11 L-8,10 Z " fill="#5D0606" transform="translate(342,155)"/>
<path d="M0,0 L3,0 L4,14 L0,17 Z " fill="#8B0000" transform="translate(210,272)"/>
<path d="M0,0 L1,2 L-4,10 L-6,10 L-6,12 L-8,12 L-9,15 L-11,15 L-13,19 L-15,20 L-13,15 L-10,10 L-8,10 L-6,6 L-1,1 Z " fill="#500000" transform="translate(328,182)"/>
<path d="M0,0 L11,1 L19,7 L24,12 L24,15 L15,7 L10,4 L0,1 Z " fill="#320000" transform="translate(324,125)"/>
<path d="M0,0 L6,2 L12,4 L12,7 L8,6 L-21,5 L-21,4 L3,3 Z " fill="#6C1111" transform="translate(333,339)"/>
<path d="M0,0 L6,0 L10,3 L12,9 L12,18 L11,18 L9,9 L5,4 L0,1 Z " fill="#7C0000" transform="translate(284,159)"/>
<path d="M0,0 L2,2 L5,12 L5,27 L3,31 L2,29 L3,24 L3,14 L0,6 Z " fill="#490404" transform="translate(193,264)"/>
<path d="M0,0 L9,0 L9,1 L-1,3 L-4,6 L-7,6 L-9,10 L-14,14 L-13,9 L-7,4 L-4,3 L-3,1 Z " fill="#400000" transform="translate(207,242)"/>
<path d="M0,0 L3,0 L3,12 L0,17 L-4,18 L-3,14 L-1,14 L0,11 Z " fill="#350000" transform="translate(349,351)"/>
<path d="M0,0 L3,0 L4,11 L3,18 L1,19 Z " fill="#7E0000" transform="translate(207,272)"/>
<path d="M0,0 L1,2 L0,16 L-2,19 L-3,16 L-3,4 L-2,1 Z " fill="#5B0000" transform="translate(308,207)"/>
<path d="M0,0 L7,0 L15,3 L22,5 L21,9 L16,6 L7,3 L0,1 Z " fill="#510000" transform="translate(321,131)"/>
<path d="M0,0 L1,2 L0,13 L-1,13 L-1,21 L-3,21 L-5,9 L-1,1 Z " fill="#860606" transform="translate(300,208)"/>
<path d="M0,0 L1,0 L1,10 L-4,15 L-5,12 L-2,3 L0,3 Z " fill="#640000" transform="translate(287,180)"/>
<path d="M0,0 L14,7 L24,9 L24,10 L15,10 L1,4 Z " fill="#4C0000" transform="translate(160,362)"/>
<path d="M0,0 L2,1 L2,3 L5,4 L5,6 L10,8 L12,10 L5,10 L0,6 Z " fill="#760000" transform="translate(213,333)"/>
<path d="M0,0 L4,4 L5,11 L5,20 L3,26 L2,23 L2,8 Z " fill="#4F0000" transform="translate(195,268)"/>
<path d="M0,0 L5,4 L17,9 L19,11 L10,10 L5,7 L2,7 Z " fill="#480000" transform="translate(159,153)"/>
<path d="M0,0 L10,0 L7,2 L-7,5 L-13,5 L-9,3 L-6,3 L-6,1 Z " fill="#620000" transform="translate(227,244)"/>
<path d="M0,0 L2,0 L0,4 L-8,14 L-10,13 L-9,10 L-7,10 L-6,6 L-2,2 L0,2 Z " fill="#6D0808" transform="translate(281,195)"/>
<path d="M0,0 L1,0 L1,5 L-7,14 L-8,11 L-6,11 L-6,5 L-4,3 L0,3 Z " fill="#720C0C" transform="translate(207,288)"/>
<path d="M0,0 L13,0 L13,1 L8,1 L8,3 L3,6 L0,6 Z " fill="#7F0000" transform="translate(259,252)"/>
<path d="M0,0 L2,0 L1,4 L-6,12 L-7,8 Z " fill="#620000" transform="translate(195,303)"/>
<path d="M0,0 L4,1 L-13,9 L-16,11 L-16,7 L-4,2 Z " fill="#480000" transform="translate(176,130)"/>
<path d="M0,0 L2,4 L2,9 L1,10 L-9,10 L-5,8 L-3,8 L-1,4 Z " fill="#7F0000" transform="translate(250,239)"/>
<path d="M0,0 L3,0 L4,7 L-3,7 L-2,3 Z " fill="#A70808" transform="translate(289,222)"/>
<path d="M0,0 L2,1 L-1,2 L-1,4 L-3,4 L-4,18 L-5,20 L-6,19 L-6,5 Z " fill="#3B0303" transform="translate(163,133)"/>
<path d="M0,0 L5,4 L9,6 L7,6 L8,9 L6,11 L2,6 L-2,3 Z " fill="#941C1C" transform="translate(252,246)"/>
<path d="M0,0 L3,3 L4,5 L4,15 L1,18 L1,6 Z " fill="#850202" transform="translate(294,162)"/>
<path d="M0,0 L1,2 L-1,10 L-3,10 L-4,12 L-4,10 L-7,9 Z " fill="#730B0B" transform="translate(308,198)"/>
<path d="M0,0 L1,3 L1,15 L3,15 L4,22 L0,21 L-1,16 L-1,2 Z " fill="#640303" transform="translate(305,208)"/>
<path d="M0,0 L3,1 L4,5 L4,18 L3,14 L0,13 L1,12 L1,3 Z " fill="#5E1F1F" transform="translate(343,140)"/>
<path d="M0,0 L6,0 L3,5 L-1,9 Z " fill="#AA0909" transform="translate(218,272)"/>
<path d="M0,0 L1,4 L-6,13 L-7,13 L-7,8 Z " fill="#6F0C0C" transform="translate(259,222)"/>
<path d="M0,0 L5,2 L5,17 L4,17 L4,8 L2,8 Z " fill="#5F0303" transform="translate(198,270)"/>
<path d="M0,0 L7,1 L12,3 L14,6 L8,6 L5,3 L0,1 Z " fill="#3F0000" transform="translate(328,129)"/>
<path d="M0,0 L1,0 L1,15 L2,19 L-1,19 L-2,13 L-1,1 Z " fill="#470000" transform="translate(158,343)"/>
<path d="M0,0 L3,0 L2,4 L-4,11 L-5,8 L-2,2 Z " fill="#6D0C0C" transform="translate(168,334)"/>
<path d="M0,0 L1,2 L-10,11 L-14,10 L-13,8 L-6,5 Z " fill="#5F0000" transform="translate(251,233)"/>
<path d="M0,0 L1,2 L-1,3 L-1,6 L-7,10 L-12,14 L-10,10 L-2,1 Z " fill="#600000" transform="translate(273,203)"/>
<path d="M0,0 L1,2 L-1,6 L2,13 L2,16 L0,16 L-3,7 L-2,2 Z " fill="#970707" transform="translate(206,327)"/>
<path d="M0,0 L6,0 L5,2 L-6,5 L-5,1 Z " fill="#500000" transform="translate(212,244)"/>
<path d="M0,0 L1,3 L0,6 L-1,5 L-2,9 L-6,9 L-4,5 Z " fill="#B51818" transform="translate(199,335)"/>
<path d="M0,0 L4,4 L4,7 L-2,7 L-3,3 L-1,2 Z " fill="#A50000" transform="translate(200,336)"/>
<path d="M0,0 L1,4 L-4,7 L-9,12 L-7,8 Z " fill="#660000" transform="translate(187,312)"/>
<path d="M0,0 L2,1 L-2,7 L-3,11 L-6,12 L-5,5 Z " fill="#5A0000" transform="translate(316,193)"/>
<path d="M0,0 L2,0 L6,7 L9,10 L5,10 L5,8 L2,7 L0,4 Z " fill="#830000" transform="translate(209,333)"/>
<path d="M0,0 L1,2 L-2,8 L-5,11 L-7,9 Z " fill="#771919" transform="translate(256,267)"/>
<path d="M0,0 L1,4 L-4,9 L-7,9 L-5,7 L-6,5 L-1,2 Z " fill="#420707" transform="translate(314,245)"/>
<path d="M0,0 L1,0 L3,16 L0,15 Z " fill="#800000" transform="translate(298,213)"/>
<path d="M0,0 L2,4 L-3,8 L-5,8 L-5,10 L-7,9 Z " fill="#730F0F" transform="translate(323,179)"/>
<path d="M0,0 L1,2 L-1,12 L-3,11 L-3,3 Z " fill="#840B0B" transform="translate(211,321)"/>
<path d="M0,0 L1,2 L-3,12 L-4,8 L-6,7 Z " fill="#7A1414" transform="translate(219,311)"/>
<path d="M0,0 L3,3 L6,8 L6,12 L4,12 L0,2 Z " fill="#910000" transform="translate(204,331)"/>
<path d="M0,0 L1,2 L0,8 L-2,8 L-2,10 L-5,11 L-4,6 Z " fill="#600000" transform="translate(283,187)"/>
<path d="M0,0 L6,0 L1,7 L0,7 Z " fill="#AD0707" transform="translate(306,159)"/>
<path d="M0,0 L4,3 L4,8 L0,6 L-2,3 L1,3 Z " fill="#451010" transform="translate(347,343)"/>
<path d="M0,0 L6,2 L12,4 L12,7 L6,5 L0,1 Z " fill="#510F0F" transform="translate(333,339)"/>
<path d="M0,0 L5,0 L5,8 L1,3 Z " fill="#A50000" transform="translate(301,159)"/>
<path d="M0,0 L2,1 L0,6 L-5,10 L-4,6 L-2,2 L0,2 Z " fill="#530000" transform="translate(228,308)"/>
<path d="M0,0 L1,3 L-2,9 L-6,8 Z " fill="#741212" transform="translate(315,189)"/>
<path d="M0,0 L1,3 L-4,9 L-5,5 Z " fill="#7A1010" transform="translate(293,180)"/>
<path d="M0,0 L1,3 L-3,9 L-6,8 Z " fill="#7A1515" transform="translate(333,166)"/>
<path d="M0,0 L2,0 L3,6 L2,12 L1,12 L0,7 Z " fill="#950000" transform="translate(213,272)"/>
<path d="M0,0 L2,0 L0,5 L-5,9 L-7,8 L-2,3 Z " fill="#6B0000" transform="translate(250,235)"/>
<path d="M0,0 L2,0 L1,5 L-2,7 L-2,1 Z " fill="#8E0F0F" transform="translate(212,282)"/>
<path d="M0,0 L3,1 L0,7 L-2,6 L-1,1 Z " fill="#6F0808" transform="translate(326,175)"/>
<path d="M0,0 L5,4 L7,5 L7,7 L3,8 L0,2 Z " fill="#470D0D" transform="translate(159,153)"/>
<path d="M0,0 L0,3 L-4,8 L-8,7 Z " fill="#280000" transform="translate(317,252)"/>
<path d="M0,0 L2,0 L0,4 L-4,8 L-3,3 Z " fill="#7C1515" transform="translate(266,214)"/>
<path d="M0,0 L1,3 L-2,4 L-3,8 L-6,7 Z " fill="#751212" transform="translate(226,303)"/>
<path d="M0,0 L2,0 L0,4 L-2,8 L-5,9 L-5,7 L-3,6 L-1,1 Z " fill="#650000" transform="translate(229,300)"/>
<path d="M0,0 L6,0 L1,4 L-2,4 L-2,1 Z " fill="#790000" transform="translate(261,254)"/>
<path d="M0,0 L2,0 L1,3 L-4,7 L-3,2 Z " fill="#460B0B" transform="translate(197,249)"/>
<path d="M0,0 L1,4 L-3,8 L-3,4 L-1,4 Z " fill="#6F0909" transform="translate(275,201)"/>
<path d="M0,0 L1,0 L1,5 L-3,8 L-3,3 L0,3 Z " fill="#7D1010" transform="translate(207,288)"/>
<path d="M0,0 L1,3 L-4,7 L-4,3 Z " fill="#751313" transform="translate(192,308)"/>
<path d="M0,0 L5,0 L3,1 L4,4 L2,6 L0,3 Z " fill="#8C1111" transform="translate(256,251)"/>
<path d="M0,0 L4,1 L7,3 L6,7 L2,2 Z " fill="#820000" transform="translate(287,159)"/>
<path d="M0,0 L5,0 L4,2 L-4,3 Z " fill="#500000" transform="translate(331,367)"/>
<path d="M0,0 L6,3 L7,6 L2,4 Z " fill="#7C0000" transform="translate(213,337)"/>
<path d="M0,0 L3,1 L-2,7 L-3,4 Z " fill="#7B1818" transform="translate(183,318)"/>
<path d="M0,0 L1,2 L-4,7 L-5,5 L-4,2 Z " fill="#630000" transform="translate(253,275)"/>
<path d="M0,0 L2,1 L0,6 L-3,6 L-2,3 L0,3 Z " fill="#6F0A0A" transform="translate(285,188)"/>
<path d="M0,0 L5,1 L4,5 L0,1 Z " fill="#490606" transform="translate(338,135)"/>
<path d="M0,0 L2,3 L-1,5 L-4,4 Z " fill="#7A1919" transform="translate(233,295)"/>
<path d="M0,0 L4,4 L4,6 L1,6 Z " fill="#551B1B" transform="translate(156,356)"/>
<path d="M0,0 L2,0 L1,5 L-1,7 Z " fill="#5C1212" transform="translate(159,345)"/>
<path d="M0,0 L2,4 L2,7 L-2,5 Z " fill="#821111" transform="translate(250,239)"/>
<path d="M0,0 L3,1 L2,5 L-2,1 Z " fill="#5E1B1B" transform="translate(311,229)"/>
<path d="M0,0 L1,4 L-2,4 L-2,6 L-4,5 Z " fill="#771818" transform="translate(338,160)"/>
<path d="M0,0 L2,0 L2,2 L-3,5 L-3,1 Z " fill="#4A0D0D" transform="translate(163,136)"/>
<path d="M0,0 L4,1 L1,4 L-2,3 L0,3 Z " fill="#460202" transform="translate(306,251)"/>
<path d="M0,0 L2,1 L-2,5 L-3,2 Z " fill="#750D0D" transform="translate(270,209)"/>
<path d="M0,0 L2,0 L2,3 L-4,3 Z " fill="#2E0000" transform="translate(340,372)"/>
<path d="M0,0 L5,4 L3,5 L0,3 Z " fill="#551717" transform="translate(160,362)"/>
<path d="M0,0 L2,0 L1,5 L-1,5 Z " fill="#650000" transform="translate(309,198)"/>
<path d="M0,0 L2,0 L0,4 L-3,4 L-2,2 L0,2 Z " fill="#771515" transform="translate(281,195)"/>
<path d="M0,0 L4,1 L0,5 Z " fill="#B61515" transform="translate(308,159)"/>
<path d="M0,0 L2,1 L-2,5 L-1,1 Z " fill="#7D1616" transform="translate(175,328)"/>
<path d="M0,0 L1,3 L-1,5 L-3,3 Z " fill="#822222" transform="translate(248,277)"/>
<path d="M0,0 L2,0 L1,4 L-2,3 Z " fill="#6C0606" transform="translate(250,235)"/>
<path d="M0,0 L3,1 L3,6 L0,2 Z " fill="#531313" transform="translate(343,140)"/>
<path d="M0,0 L1,3 L-3,4 Z " fill="#842A2A" transform="translate(226,303)"/>
<path d="M0,0 L2,0 L1,4 L-1,3 Z " fill="#741212" transform="translate(195,303)"/>
<path d="M0,0 L2,0 L1,3 L-2,2 Z " fill="#6C0505" transform="translate(229,300)"/>
<path d="M0,0 L1,3 L-2,4 Z " fill="#7D1B1B" transform="translate(323,179)"/>
<path d="M0,0 L2,1 L1,4 L-1,1 Z " fill="#6C0808" transform="translate(193,305)"/>
<path d="M0,0 L2,0 L1,3 L-2,1 Z " fill="#683232" transform="translate(310,249)"/>
</svg>
